# xmcd
#
# Track frame offsets: 
#        150
#        17180
#        37797
#        57617
#        83180
#        96202
#        125872
#        138327
#        152035
#        168312
#        199352
#        217047
#        234732
#        262302
#        283285
#        305922
#        319505
#
# Disc length: 4444 seconds
#
# Revision: 0
# Processed by: cddbd v1.5PL3 Copyright (c) Steve Scherf et al.
# Submitted via: ExactAudioCopy v0.95a5
#
DISCID=0b115a11
DTITLE=Various Artist - 8. International Blues, Jazz, Rock and Gastronomic Fe
DTITLE=stival, Paks - Hungary
DYEAR=1900
DGENRE=Blues
TTITLE0=Chris Farlowe Band - Blues I Got
TTITLE1=Noel Redding Band - Further Up On The Road
TTITLE2=Benko Zsolt es a Blue Rivers - Mary Had A Little Lamb
TTITLE3=Muddy Shoes - One More Glass of Cheap Whiskey
TTITLE4=Ferenczi Gyorgy es a Herfli Davidson - Oreg Leszek es Kover
TTITLE5=Tatrai Tibor and Magyar Atom - Crazy Mama
TTITLE6=Deak Bill Blues Band - Falun volna jo
TTITLE7=Blues Affection - La Petite and Belle
TTITLE8=Toth Bagi Band - I'm Ready
TTITLE9=Spo-Dee-o-Dee Session - My Queen is Stay at Home
TTITLE10=Raw Hide - You're Gonna Miss Me
TTITLE11=Torok Adam and Mini - Kereszteslovag
TTITLE12=Pepe Ahlqvist with Blues Affection - Lend Me Your Love
TTITLE13=P. Mobil - Honfoglalas I. tetel Oshaza
TTITLE14=Rudan Joe's Coda - Az utolso motoros
TTITLE15=Blues Fools - You Got Me Fooling Around
TTITLE16=Takats Tamas Dirty Blues Band - Country
EXTD=
EXTT0=
EXTT1=
EXTT2=
EXTT3=
EXTT4=
EXTT5=
EXTT6=
EXTT7=
EXTT8=
EXTT9=
EXTT10=
EXTT11=
EXTT12=
EXTT13=
EXTT14=
EXTT15=
EXTT16=
PLAYORDER=
